<svg width="43" height="43" viewBox="0 0 43 43" fill="none" xmlns="http://www.w3.org/2000/svg">
<path d="M41.9141 1.90474L41.6898 1.31121L41.0963 1.08706C39.1862 0.365723 37.1786 0 35.1291 0C30.6251 0 26.3905 1.75399 23.2056 4.93894L18.69 9.45448L8.59783 9.94399L0.151001 18.3907L7.4339 20.7106L4.74079 23.4036L6.31398 24.9768L2.82866 30.319L12.6819 40.1725L18.0242 36.6872L19.5974 38.2603L22.2905 35.5672L24.6102 42.8501L33.0572 34.4033L33.5467 24.3112L38.0622 19.7957C42.7399 15.1178 44.2519 8.09524 41.9141 1.90474ZM5.39958 17.1146L9.81728 12.697L15.7345 12.41L9.66972 18.4748L5.39958 17.1146ZM13.0564 36.5744L6.42671 29.9448L8.34362 27.0066L15.9945 34.6575L13.0564 36.5744ZM30.3041 33.184L25.8865 37.6016L24.5263 33.3314L30.5911 27.2667L30.3041 33.184ZM19.5974 34.2879L8.71318 23.4036L25.1918 6.92504C27.8462 4.2707 31.3753 2.80893 35.1291 2.80893C36.6232 2.80893 38.0902 3.04179 39.499 3.50189C41.1329 8.50928 39.8232 14.0621 36.076 17.8094L19.5974 34.2879Z" fill="white"/>
</svg>
